<svg xmlns="http://www.w3.org/2000/svg" xmlns:xlink="http://www.w3.org/1999/xlink" fill="none" version="1.1" width="274" height="274" viewBox="0 0 274 274"><defs><linearGradient x1="0.5" y1="0" x2="0.5" y2="1" id="master_svg0_3_1788"><stop offset="1.3698630034923553%" stop-color="#553FC4" stop-opacity="1"/><stop offset="51.09488368034363%" stop-color="#3C2C8C" stop-opacity="1"/><stop offset="100%" stop-color="#241C47" stop-opacity="1"/></linearGradient><linearGradient x1="0.5" y1="0" x2="0.5" y2="1" id="master_svg1_3_2381"><stop offset="0%" stop-color="#F7F5F8" stop-opacity="1"/><stop offset="7.4683889746665955%" stop-color="#F7F5F7" stop-opacity="0.9843417406082153"/><stop offset="100%" stop-color="#D8D8D8" stop-opacity="0.013819515705108643"/><stop offset="100%" stop-color="#D8D8D8" stop-opacity="0"/></linearGradient><radialGradient cx="0" cy="0" r="1" gradientUnits="userSpaceOnUse" id="master_svg2_3_5909" gradientTransform="translate(0 0) rotate(72.87068052619158) scale(102.93686423722426 159.08911032544532)"><stop offset="0%" stop-color="#F4D7B1" stop-opacity="1"/><stop offset="100%" stop-color="#F4D7B1" stop-opacity="0"/></radialGradient></defs><g style="mix-blend-mode:passthrough"><g><g style="mix-blend-mode:passthrough"><rect x="0" y="0" width="274" height="274" rx="0" fill="#FFFFFF" fill-opacity="0"/></g><g style="mix-blend-mode:passthrough"><g><g style="mix-blend-mode:passthrough"><path d="M0,274L211,274Q150,241.5,150,188C150,134.5,187,138.5,187,70.5Q187,2.49996,71,0L35.5,0L0,0L0,274Z" fill="url(#master_svg0_3_1788)" fill-opacity="1"/></g><g style="mix-blend-mode:passthrough"><path d="M0,270.2248371582031L0,273.99983715820315L18.9898,273.99983715820315L182.151,107.17523715820313C185.096,97.64773715820313,187,85.92663715820312,187,70.49993715820312Q187,25.558237158203124,136.331,9.226834107023125L0,270.2248371582031Z" fill-rule="evenodd" fill="url(#master_svg1_3_2381)" fill-opacity="1"/></g><g style="mix-blend-mode:passthrough"><path d="M152.032,15.5751Q123.311,1.12738,71,0L0,0L0,98.3708L152.032,15.5751Z" fill-rule="evenodd" fill="url(#master_svg2_3_5909)" fill-opacity="1"/></g></g></g></g></g></svg>